<svg xmlns="http://www.w3.org/2000/svg" viewBox="0 0 100 100" enable-background="new 0 0 100 100"><circle cx="50" cy="50" r="50" fill="#2b3447"/><path d="m0 49.6c0 .1 0 .2 0 .4 0 27.6 22.4 50 50 50 .1 0 .2 0 .4 0l29.8-29.8-50.4-50.4-29.8 29.8" opacity=".5" fill="#131a26"/><path d="m29.8 19.8c-14 14 1.2 29.5 1.2 29.5l6.2 6.2c4.7 4.7 12.1 3.5 15.3 2.8l10.4-6.1 5.5-9.7c.8-3.1 1.9-10.6-2.8-15.3l-6.3-6.2c0 0-15.4-15.2-29.5-1.2" fill="#cc1d1d"/><path d="m52.5 58.3c.9-.2 1.5-.4 1.5-.4 7.1-2.2 9.8.8 9.8.8l12.1 14.3c3-1.3 4.3-2.8 4.3-2.8s1.6-1.3 2.8-4.3l-14.3-12.2c0 0-3-2.6-.8-9.8 0 0 .2-.6.4-1.5l-15.8 15.9" fill="#d17f47"/><path d="m29.8 19.8l32.6 32.6.4-.2 5.5-9.7c.8-3.1 1.9-10.6-2.8-15.3l-6.2-6.2c0 0-15.4-15.2-29.5-1.2" fill="#fc3838"/><path d="m80.2 70.2c0 0 1.6-1.3 2.8-4.3l-14.3-12.2c0 0-3-2.6-.8-9.8 0 0 .2-.6.4-1.5l-7.9 7.9 19.8 19.9" fill="#ffb25f"/><circle cx="40.7" cy="70.6" r="5.8" fill="#fff"/></svg>